<svg class="rich-terminal" viewBox="0 0 1970 928.4" xmlns="http://www.w3.org/2000/svg">
    <!-- Generated with Rich https://www.textualize.io -->
    <style>

    .terminal-4057183255-matrix {
        font-family: ui-monospace, SFMono-Regular, Menlo, monospace;
        font-size: 20px;
        line-height: 24.4px;
        font-variant-east-asian: full-width;
    }

    .terminal-4057183255-title {
        font-size: 18px;
        font-weight: bold;
        font-family: arial;
    }

    .terminal-4057183255-r1 { fill: #c5c8c6 }
.terminal-4057183255-r2 { fill: #e6e6e6 }
.terminal-4057183255-r3 { fill: #3b3b3b;font-weight: bold }
.terminal-4057183255-r4 { fill: #e0e0e0;font-weight: bold }
.terminal-4057183255-r5 { fill: #e0e0e0 }
.terminal-4057183255-r6 { fill: #eaeaea;font-weight: bold }
.terminal-4057183255-r7 { fill: #b9b9b9 }
.terminal-4057183255-r8 { fill: #c3c3c3 }
.terminal-4057183255-r9 { fill: #a1a1a1 }
.terminal-4057183255-r10 { fill: #c4c4c4;font-weight: bold }
.terminal-4057183255-r11 { fill: #a0a0a0 }
.terminal-4057183255-r12 { fill: #e9e9e9;font-weight: bold }
.terminal-4057183255-r13 { fill: #5c5c5c }
.terminal-4057183255-r14 { fill: #b0b0b0;font-weight: bold }
.terminal-4057183255-r15 { fill: #515151 }
    </style>

    <defs>
    <clipPath id="terminal-4057183255-clip-terminal">
      <rect x="0" y="0" width="1951.0" height="877.4" />
    </clipPath>
    <clipPath id="terminal-4057183255-line-0">
    <rect x="0" y="1.5" width="1952" height="24.65"/>
            </clipPath>
<clipPath id="terminal-4057183255-line-1">
    <rect x="0" y="25.9" width="1952" height="24.65"/>
            </clipPath>
<clipPath id="terminal-4057183255-line-2">
    <rect x="0" y="50.3" width="1952" height="24.65"/>
            </clipPath>
<clipPath id="terminal-4057183255-line-3">
    <rect x="0" y="74.7" width="1952" height="24.65"/>
            </clipPath>
<clipPath id="terminal-4057183255-line-4">
    <rect x="0" y="99.1" width="1952" height="24.65"/>
            </clipPath>
<clipPath id="terminal-4057183255-line-5">
    <rect x="0" y="123.5" width="1952" height="24.65"/>
            </clipPath>
<clipPath id="terminal-4057183255-line-6">
    <rect x="0" y="147.9" width="1952" height="24.65"/>
            </clipPath>
<clipPath id="terminal-4057183255-line-7">
    <rect x="0" y="172.3" width="1952" height="24.65"/>
            </clipPath>
<clipPath id="terminal-4057183255-line-8">
    <rect x="0" y="196.7" width="1952" height="24.65"/>
            </clipPath>
<clipPath id="terminal-4057183255-line-9">
    <rect x="0" y="221.1" width="1952" height="24.65"/>
            </clipPath>
<clipPath id="terminal-4057183255-line-10">
    <rect x="0" y="245.5" width="1952" height="24.65"/>
            </clipPath>
<clipPath id="terminal-4057183255-line-11">
    <rect x="0" y="269.9" width="1952" height="24.65"/>
            </clipPath>
<clipPath id="terminal-4057183255-line-12">
    <rect x="0" y="294.3" width="1952" height="24.65"/>
            </clipPath>
<clipPath id="terminal-4057183255-line-13">
    <rect x="0" y="318.7" width="1952" height="24.65"/>
            </clipPath>
<clipPath id="terminal-4057183255-line-14">
    <rect x="0" y="343.1" width="1952" height="24.65"/>
            </clipPath>
<clipPath id="terminal-4057183255-line-15">
    <rect x="0" y="367.5" width="1952" height="24.65"/>
            </clipPath>
<clipPath id="terminal-4057183255-line-16">
    <rect x="0" y="391.9" width="1952" height="24.65"/>
            </clipPath>
<clipPath id="terminal-4057183255-line-17">
    <rect x="0" y="416.3" width="1952" height="24.65"/>
            </clipPath>
<clipPath id="terminal-4057183255-line-18">
    <rect x="0" y="440.7" width="1952" height="24.65"/>
            </clipPath>
<clipPath id="terminal-4057183255-line-19">
    <rect x="0" y="465.1" width="1952" height="24.65"/>
            </clipPath>
<clipPath id="terminal-4057183255-line-20">
    <rect x="0" y="489.5" width="1952" height="24.65"/>
            </clipPath>
<clipPath id="terminal-4057183255-line-21">
    <rect x="0" y="513.9" width="1952" height="24.65"/>
            </clipPath>
<clipPath id="terminal-4057183255-line-22">
    <rect x="0" y="538.3" width="1952" height="24.65"/>
            </clipPath>
<clipPath id="terminal-4057183255-line-23">
    <rect x="0" y="562.7" width="1952" height="24.65"/>
            </clipPath>
<clipPath id="terminal-4057183255-line-24">
    <rect x="0" y="587.1" width="1952" height="24.65"/>
            </clipPath>
<clipPath id="terminal-4057183255-line-25">
    <rect x="0" y="611.5" width="1952" height="24.65"/>
            </clipPath>
<clipPath id="terminal-4057183255-line-26">
    <rect x="0" y="635.9" width="1952" height="24.65"/>
            </clipPath>
<clipPath id="terminal-4057183255-line-27">
    <rect x="0" y="660.3" width="1952" height="24.65"/>
            </clipPath>
<clipPath id="terminal-4057183255-line-28">
    <rect x="0" y="684.7" width="1952" height="24.65"/>
            </clipPath>
<clipPath id="terminal-4057183255-line-29">
    <rect x="0" y="709.1" width="1952" height="24.65"/>
            </clipPath>
<clipPath id="terminal-4057183255-line-30">
    <rect x="0" y="733.5" width="1952" height="24.65"/>
            </clipPath>
<clipPath id="terminal-4057183255-line-31">
    <rect x="0" y="757.9" width="1952" height="24.65"/>
            </clipPath>
<clipPath id="terminal-4057183255-line-32">
    <rect x="0" y="782.3" width="1952" height="24.65"/>
            </clipPath>
<clipPath id="terminal-4057183255-line-33">
    <rect x="0" y="806.7" width="1952" height="24.65"/>
            </clipPath>
<clipPath id="terminal-4057183255-line-34">
    <rect x="0" y="831.1" width="1952" height="24.65"/>
            </clipPath>
    </defs>

    <rect fill="#292929" stroke="rgba(255,255,255,0.35)" stroke-width="1" x="1" y="1" width="1968" height="926.4" rx="8"/><text class="terminal-4057183255-title" fill="#c5c8c6" text-anchor="middle" x="984" y="27">笔记本会话聚合看板</text>
            <g transform="translate(26,22)">
            <circle cx="0" cy="0" r="7" fill="#ff5f57"/>
            <circle cx="22" cy="0" r="7" fill="#febc2e"/>
            <circle cx="44" cy="0" r="7" fill="#28c840"/>
            </g>

    <g transform="translate(9, 41)" clip-path="url(#terminal-4057183255-clip-terminal)">
    <rect fill="#404040" x="0" y="1.5" width="12.2" height="24.65" shape-rendering="crispEdges"/><rect fill="#404040" x="12.2" y="1.5" width="549" height="24.65" shape-rendering="crispEdges"/><rect fill="#404040" x="561.2" y="1.5" width="134.2" height="24.65" shape-rendering="crispEdges"/><rect fill="#404040" x="695.4" y="1.5" width="1244.4" height="24.65" shape-rendering="crispEdges"/><rect fill="#404040" x="1939.8" y="1.5" width="12.2" height="24.65" shape-rendering="crispEdges"/><rect fill="#363636" x="0" y="25.9" width="207.4" height="24.65" shape-rendering="crispEdges"/><rect fill="#363636" x="207.4" y="25.9" width="158.6" height="24.65" shape-rendering="crispEdges"/><rect fill="#363636" x="366" y="25.9" width="402.6" height="24.65" shape-rendering="crispEdges"/><rect fill="#363636" x="768.6" y="25.9" width="402.6" height="24.65" shape-rendering="crispEdges"/><rect fill="#363636" x="1171.2" y="25.9" width="207.4" height="24.65" shape-rendering="crispEdges"/><rect fill="#363636" x="1378.6" y="25.9" width="317.2" height="24.65" shape-rendering="crispEdges"/><rect fill="#363636" x="1695.8" y="25.9" width="146.4" height="24.65" shape-rendering="crispEdges"/><rect fill="#323232" x="1842.2" y="25.9" width="109.8" height="24.65" shape-rendering="crispEdges"/><rect fill="#656565" x="0" y="50.3" width="207.4" height="24.65" shape-rendering="crispEdges"/><rect fill="#272727" x="207.4" y="50.3" width="12.2" height="24.65" shape-rendering="crispEdges"/><rect fill="#272727" x="219.6" y="50.3" width="61" height="24.65" shape-rendering="crispEdges"/><rect fill="#272727" x="280.6" y="50.3" width="85.4" height="24.65" shape-rendering="crispEdges"/><rect fill="#272727" x="366" y="50.3" width="12.2" height="24.65" shape-rendering="crispEdges"/><rect fill="#272727" x="378.2" y="50.3" width="268.4" height="24.65" shape-rendering="crispEdges"/><rect fill="#272727" x="646.6" y="50.3" width="122" height="24.65" shape-rendering="crispEdges"/><rect fill="#272727" x="768.6" y="50.3" width="402.6" height="24.65" shape-rendering="crispEdges"/><rect fill="#272727" x="1171.2" y="50.3" width="12.2" height="24.65" shape-rendering="crispEdges"/><rect fill="#272727" x="1183.4" y="50.3" width="85.4" height="24.65" shape-rendering="crispEdges"/><rect fill="#272727" x="1268.8" y="50.3" width="109.8" height="24.65" shape-rendering="crispEdges"/><rect fill="#272727" x="1378.6" y="50.3" width="12.2" height="24.65" shape-rendering="crispEdges"/><rect fill="#272727" x="1390.8" y="50.3" width="134.2" height="24.65" shape-rendering="crispEdges"/><rect fill="#272727" x="1525" y="50.3" width="170.8" height="24.65" shape-rendering="crispEdges"/><rect fill="#272727" x="1695.8" y="50.3" width="12.2" height="24.65" shape-rendering="crispEdges"/><rect fill="#1d1d1d" x="1708" y="50.3" width="97.6" height="24.65" shape-rendering="crispEdges"/><rect fill="#272727" x="1805.6" y="50.3" width="36.6" height="24.65" shape-rendering="crispEdges"/><rect fill="#272727" x="1842.2" y="50.3" width="109.8" height="24.65" shape-rendering="crispEdges"/><rect fill="#272727" x="0" y="74.7" width="1952" height="24.65" shape-rendering="crispEdges"/><rect fill="#272727" x="0" y="99.1" width="1952" height="24.65" shape-rendering="crispEdges"/><rect fill="#272727" x="0" y="123.5" width="1952" height="24.65" shape-rendering="crispEdges"/><rect fill="#272727" x="0" y="147.9" width="1952" height="24.65" shape-rendering="crispEdges"/><rect fill="#272727" x="0" y="172.3" width="1952" height="24.65" shape-rendering="crispEdges"/><rect fill="#272727" x="0" y="196.7" width="1952" height="24.65" shape-rendering="crispEdges"/><rect fill="#272727" x="0" y="221.1" width="1952" height="24.65" shape-rendering="crispEdges"/><rect fill="#272727" x="0" y="245.5" width="1952" height="24.65" shape-rendering="crispEdges"/><rect fill="#272727" x="0" y="269.9" width="1952" height="24.65" shape-rendering="crispEdges"/><rect fill="#272727" x="0" y="294.3" width="1952" height="24.65" shape-rendering="crispEdges"/><rect fill="#272727" x="0" y="318.7" width="1952" height="24.65" shape-rendering="crispEdges"/><rect fill="#272727" x="0" y="343.1" width="1952" height="24.65" shape-rendering="crispEdges"/><rect fill="#272727" x="0" y="367.5" width="1952" height="24.65" shape-rendering="crispEdges"/><rect fill="#272727" x="0" y="391.9" width="1952" height="24.65" shape-rendering="crispEdges"/><rect fill="#272727" x="0" y="416.3" width="1952" height="24.65" shape-rendering="crispEdges"/><rect fill="#272727" x="0" y="440.7" width="1952" height="24.65" shape-rendering="crispEdges"/><rect fill="#272727" x="0" y="465.1" width="1952" height="24.65" shape-rendering="crispEdges"/><rect fill="#272727" x="0" y="489.5" width="1952" height="24.65" shape-rendering="crispEdges"/><rect fill="#272727" x="0" y="513.9" width="1952" height="24.65" shape-rendering="crispEdges"/><rect fill="#272727" x="0" y="538.3" width="1952" height="24.65" shape-rendering="crispEdges"/><rect fill="#272727" x="0" y="562.7" width="1952" height="24.65" shape-rendering="crispEdges"/><rect fill="#272727" x="0" y="587.1" width="1952" height="24.65" shape-rendering="crispEdges"/><rect fill="#272727" x="0" y="611.5" width="1952" height="24.65" shape-rendering="crispEdges"/><rect fill="#272727" x="0" y="635.9" width="1952" height="24.65" shape-rendering="crispEdges"/><rect fill="#272727" x="0" y="660.3" width="1952" height="24.65" shape-rendering="crispEdges"/><rect fill="#272727" x="0" y="684.7" width="1952" height="24.65" shape-rendering="crispEdges"/><rect fill="#272727" x="0" y="709.1" width="1952" height="24.65" shape-rendering="crispEdges"/><rect fill="#272727" x="0" y="733.5" width="1952" height="24.65" shape-rendering="crispEdges"/><rect fill="#272727" x="0" y="757.9" width="1952" height="24.65" shape-rendering="crispEdges"/><rect fill="#272727" x="0" y="782.3" width="1952" height="24.65" shape-rendering="crispEdges"/><rect fill="#272727" x="0" y="806.7" width="1952" height="24.65" shape-rendering="crispEdges"/><rect fill="#121212" x="0" y="831.1" width="12.2" height="24.65" shape-rendering="crispEdges"/><rect fill="#121212" x="12.2" y="831.1" width="805.2" height="24.65" shape-rendering="crispEdges"/><rect fill="#121212" x="817.4" y="831.1" width="878.4" height="24.65" shape-rendering="crispEdges"/><rect fill="#121212" x="1695.8" y="831.1" width="12.2" height="24.65" shape-rendering="crispEdges"/><rect fill="#595959" x="1708" y="831.1" width="12.2" height="24.65" shape-rendering="crispEdges"/><rect fill="#595959" x="1720.2" y="831.1" width="170.8" height="24.65" shape-rendering="crispEdges"/><rect fill="#595959" x="1891" y="831.1" width="12.2" height="24.65" shape-rendering="crispEdges"/><rect fill="#121212" x="1903.2" y="831.1" width="12.2" height="24.65" shape-rendering="crispEdges"/><rect fill="#121212" x="1915.4" y="831.1" width="12.2" height="24.65" shape-rendering="crispEdges"/><rect fill="#121212" x="1927.6" y="831.1" width="12.2" height="24.65" shape-rendering="crispEdges"/><rect fill="#121212" x="1939.8" y="831.1" width="12.2" height="24.65" shape-rendering="crispEdges"/><rect fill="#2d2d2d" x="0" y="855.5" width="36.6" height="24.65" shape-rendering="crispEdges"/><rect fill="#2d2d2d" x="36.6" y="855.5" width="61" height="24.65" shape-rendering="crispEdges"/><rect fill="#2d2d2d" x="97.6" y="855.5" width="36.6" height="24.65" shape-rendering="crispEdges"/><rect fill="#2d2d2d" x="134.2" y="855.5" width="158.6" height="24.65" shape-rendering="crispEdges"/><rect fill="#2d2d2d" x="292.8" y="855.5" width="48.8" height="24.65" shape-rendering="crispEdges"/><rect fill="#2d2d2d" x="341.6" y="855.5" width="158.6" height="24.65" shape-rendering="crispEdges"/><rect fill="#2d2d2d" x="500.2" y="855.5" width="36.6" height="24.65" shape-rendering="crispEdges"/><rect fill="#2d2d2d" x="536.8" y="855.5" width="61" height="24.65" shape-rendering="crispEdges"/><rect fill="#2d2d2d" x="597.8" y="855.5" width="36.6" height="24.65" shape-rendering="crispEdges"/><rect fill="#2d2d2d" x="634.4" y="855.5" width="61" height="24.65" shape-rendering="crispEdges"/><rect fill="#2d2d2d" x="695.4" y="855.5" width="1110.2" height="24.65" shape-rendering="crispEdges"/><rect fill="#2d2d2d" x="1805.6" y="855.5" width="12.2" height="24.65" shape-rendering="crispEdges"/><rect fill="#2d2d2d" x="1817.8" y="855.5" width="24.4" height="24.65" shape-rendering="crispEdges"/><rect fill="#2d2d2d" x="1842.2" y="855.5" width="97.6" height="24.65" shape-rendering="crispEdges"/><rect fill="#2d2d2d" x="1939.8" y="855.5" width="12.2" height="24.65" shape-rendering="crispEdges"/>
    <g class="terminal-4057183255-matrix">
    <text class="terminal-4057183255-r2" x="12.2" y="20" textLength="439.2" clip-path="url(#terminal-4057183255-line-0)">&#160;笔记本会话聚合看板&#160;·&#160;Ghostty&#160;1&#160;tabs&#160;·&#160;HAPi&#160;1</text><text class="terminal-4057183255-r3" x="561.2" y="20" textLength="97.6" clip-path="url(#terminal-4057183255-line-0)">&#160;·&#160;1&#160;处理中</text><text class="terminal-4057183255-r1" x="1952" y="20" textLength="12.2" clip-path="url(#terminal-4057183255-line-0)">
</text><text class="terminal-4057183255-r4" x="0" y="44.4" textLength="183" clip-path="url(#terminal-4057183255-line-1)">&#160;状态&#160;&#160;&#160;&#160;&#160;&#160;&#160;&#160;&#160;&#160;&#160;&#160;</text><text class="terminal-4057183255-r4" x="207.4" y="44.4" textLength="158.6" clip-path="url(#terminal-4057183255-line-1)">&#160;Agent&#160;&#160;&#160;&#160;&#160;&#160;&#160;</text><text class="terminal-4057183255-r4" x="366" y="44.4" textLength="378.2" clip-path="url(#terminal-4057183255-line-1)">&#160;Session&#160;名称&#160;&#160;&#160;&#160;&#160;&#160;&#160;&#160;&#160;&#160;&#160;&#160;&#160;&#160;&#160;&#160;&#160;&#160;&#160;&#160;</text><text class="terminal-4057183255-r4" x="768.6" y="44.4" textLength="378.2" clip-path="url(#terminal-4057183255-line-1)">&#160;首次&#160;Prompt&#160;&#160;&#160;&#160;&#160;&#160;&#160;&#160;&#160;&#160;&#160;&#160;&#160;&#160;&#160;&#160;&#160;&#160;&#160;&#160;&#160;</text><text class="terminal-4057183255-r4" x="1171.2" y="44.4" textLength="183" clip-path="url(#terminal-4057183255-line-1)">&#160;Ghostty&#160;标签&#160;&#160;&#160;&#160;</text><text class="terminal-4057183255-r4" x="1378.6" y="44.4" textLength="292.8" clip-path="url(#terminal-4057183255-line-1)">&#160;目录&#160;&#160;&#160;&#160;&#160;&#160;&#160;&#160;&#160;&#160;&#160;&#160;&#160;&#160;&#160;&#160;&#160;&#160;&#160;&#160;&#160;</text><text class="terminal-4057183255-r4" x="1695.8" y="44.4" textLength="122" clip-path="url(#terminal-4057183255-line-1)">&#160;操作&#160;&#160;&#160;&#160;&#160;&#160;&#160;</text><text class="terminal-4057183255-r1" x="1952" y="44.4" textLength="12.2" clip-path="url(#terminal-4057183255-line-1)">
</text><text class="terminal-4057183255-r6" x="0" y="68.8" textLength="170.8" clip-path="url(#terminal-4057183255-line-2)">&#160;◆&#160;Agent&#160;处理中&#160;&#160;</text><text class="terminal-4057183255-r7" x="219.6" y="68.8" textLength="61" clip-path="url(#terminal-4057183255-line-2)">codex</text><text class="terminal-4057183255-r4" x="378.2" y="68.8" textLength="134.2" clip-path="url(#terminal-4057183255-line-2)">重做笔记本会话聚合看板</text><text class="terminal-4057183255-r5" x="768.6" y="68.8" textLength="268.4" clip-path="url(#terminal-4057183255-line-2)">&#160;请以&#160;Ghostty&#160;标签页为集合事实源&#160;</text><text class="terminal-4057183255-r8" x="1183.4" y="68.8" textLength="85.4" clip-path="url(#terminal-4057183255-line-2)">W1&#160;·&#160;T1</text><text class="terminal-4057183255-r9" x="1390.8" y="68.8" textLength="134.2" clip-path="url(#terminal-4057183255-line-2)">tmp/project</text><text class="terminal-4057183255-r10" x="1708" y="68.8" textLength="73.2" clip-path="url(#terminal-4057183255-line-2)">&#160;[关闭]&#160;</text><text class="terminal-4057183255-r1" x="1952" y="68.8" textLength="12.2" clip-path="url(#terminal-4057183255-line-2)">
</text><text class="terminal-4057183255-r1" x="1952" y="93.2" textLength="12.2" clip-path="url(#terminal-4057183255-line-3)">
</text><text class="terminal-4057183255-r1" x="1952" y="117.6" textLength="12.2" clip-path="url(#terminal-4057183255-line-4)">
</text><text class="terminal-4057183255-r1" x="1952" y="142" textLength="12.2" clip-path="url(#terminal-4057183255-line-5)">
</text><text class="terminal-4057183255-r1" x="1952" y="166.4" textLength="12.2" clip-path="url(#terminal-4057183255-line-6)">
</text><text class="terminal-4057183255-r1" x="1952" y="190.8" textLength="12.2" clip-path="url(#terminal-4057183255-line-7)">
</text><text class="terminal-4057183255-r1" x="1952" y="215.2" textLength="12.2" clip-path="url(#terminal-4057183255-line-8)">
</text><text class="terminal-4057183255-r1" x="1952" y="239.6" textLength="12.2" clip-path="url(#terminal-4057183255-line-9)">
</text><text class="terminal-4057183255-r1" x="1952" y="264" textLength="12.2" clip-path="url(#terminal-4057183255-line-10)">
</text><text class="terminal-4057183255-r1" x="1952" y="288.4" textLength="12.2" clip-path="url(#terminal-4057183255-line-11)">
</text><text class="terminal-4057183255-r1" x="1952" y="312.8" textLength="12.2" clip-path="url(#terminal-4057183255-line-12)">
</text><text class="terminal-4057183255-r1" x="1952" y="337.2" textLength="12.2" clip-path="url(#terminal-4057183255-line-13)">
</text><text class="terminal-4057183255-r1" x="1952" y="361.6" textLength="12.2" clip-path="url(#terminal-4057183255-line-14)">
</text><text class="terminal-4057183255-r1" x="1952" y="386" textLength="12.2" clip-path="url(#terminal-4057183255-line-15)">
</text><text class="terminal-4057183255-r1" x="1952" y="410.4" textLength="12.2" clip-path="url(#terminal-4057183255-line-16)">
</text><text class="terminal-4057183255-r1" x="1952" y="434.8" textLength="12.2" clip-path="url(#terminal-4057183255-line-17)">
</text><text class="terminal-4057183255-r1" x="1952" y="459.2" textLength="12.2" clip-path="url(#terminal-4057183255-line-18)">
</text><text class="terminal-4057183255-r1" x="1952" y="483.6" textLength="12.2" clip-path="url(#terminal-4057183255-line-19)">
</text><text class="terminal-4057183255-r1" x="1952" y="508" textLength="12.2" clip-path="url(#terminal-4057183255-line-20)">
</text><text class="terminal-4057183255-r1" x="1952" y="532.4" textLength="12.2" clip-path="url(#terminal-4057183255-line-21)">
</text><text class="terminal-4057183255-r1" x="1952" y="556.8" textLength="12.2" clip-path="url(#terminal-4057183255-line-22)">
</text><text class="terminal-4057183255-r1" x="1952" y="581.2" textLength="12.2" clip-path="url(#terminal-4057183255-line-23)">
</text><text class="terminal-4057183255-r1" x="1952" y="605.6" textLength="12.2" clip-path="url(#terminal-4057183255-line-24)">
</text><text class="terminal-4057183255-r1" x="1952" y="630" textLength="12.2" clip-path="url(#terminal-4057183255-line-25)">
</text><text class="terminal-4057183255-r1" x="1952" y="654.4" textLength="12.2" clip-path="url(#terminal-4057183255-line-26)">
</text><text class="terminal-4057183255-r1" x="1952" y="678.8" textLength="12.2" clip-path="url(#terminal-4057183255-line-27)">
</text><text class="terminal-4057183255-r1" x="1952" y="703.2" textLength="12.2" clip-path="url(#terminal-4057183255-line-28)">
</text><text class="terminal-4057183255-r1" x="1952" y="727.6" textLength="12.2" clip-path="url(#terminal-4057183255-line-29)">
</text><text class="terminal-4057183255-r1" x="1952" y="752" textLength="12.2" clip-path="url(#terminal-4057183255-line-30)">
</text><text class="terminal-4057183255-r1" x="1952" y="776.4" textLength="12.2" clip-path="url(#terminal-4057183255-line-31)">
</text><text class="terminal-4057183255-r1" x="1952" y="800.8" textLength="12.2" clip-path="url(#terminal-4057183255-line-32)">
</text><text class="terminal-4057183255-r1" x="1952" y="825.2" textLength="12.2" clip-path="url(#terminal-4057183255-line-33)">
</text><text class="terminal-4057183255-r11" x="12.2" y="849.6" textLength="634.4" clip-path="url(#terminal-4057183255-line-34)">&#160;Enter/点击&#160;详情&#160;·&#160;x&#160;关闭&#160;·&#160;Ctrl+X&#160;清空&#160;·&#160;g&#160;连接&#160;·&#160;r&#160;刷新&#160;·&#160;q&#160;退出</text><text class="terminal-4057183255-r12" x="1720.2" y="849.6" textLength="146.4" clip-path="url(#terminal-4057183255-line-34)">&#160;清空&#160;Session&#160;</text><text class="terminal-4057183255-r13" x="1927.6" y="849.6" textLength="12.2" clip-path="url(#terminal-4057183255-line-34)">●</text><text class="terminal-4057183255-r1" x="1952" y="849.6" textLength="12.2" clip-path="url(#terminal-4057183255-line-34)">
</text><text class="terminal-4057183255-r14" x="0" y="874" textLength="36.6" clip-path="url(#terminal-4057183255-line-35)">&#160;g&#160;</text><text class="terminal-4057183255-r5" x="36.6" y="874" textLength="36.6" clip-path="url(#terminal-4057183255-line-35)">连接&#160;</text><text class="terminal-4057183255-r14" x="97.6" y="874" textLength="36.6" clip-path="url(#terminal-4057183255-line-35)">&#160;x&#160;</text><text class="terminal-4057183255-r5" x="134.2" y="874" textLength="134.2" clip-path="url(#terminal-4057183255-line-35)">关闭&#160;Session&#160;</text><text class="terminal-4057183255-r14" x="292.8" y="874" textLength="48.8" clip-path="url(#terminal-4057183255-line-35)">&#160;^x&#160;</text><text class="terminal-4057183255-r5" x="341.6" y="874" textLength="134.2" clip-path="url(#terminal-4057183255-line-35)">清空&#160;Session&#160;</text><text class="terminal-4057183255-r14" x="500.2" y="874" textLength="36.6" clip-path="url(#terminal-4057183255-line-35)">&#160;r&#160;</text><text class="terminal-4057183255-r5" x="536.8" y="874" textLength="36.6" clip-path="url(#terminal-4057183255-line-35)">刷新&#160;</text><text class="terminal-4057183255-r14" x="597.8" y="874" textLength="36.6" clip-path="url(#terminal-4057183255-line-35)">&#160;q&#160;</text><text class="terminal-4057183255-r5" x="634.4" y="874" textLength="36.6" clip-path="url(#terminal-4057183255-line-35)">退出&#160;</text><text class="terminal-4057183255-r15" x="1805.6" y="874" textLength="12.2" clip-path="url(#terminal-4057183255-line-35)">▏</text><text class="terminal-4057183255-r14" x="1817.8" y="874" textLength="24.4" clip-path="url(#terminal-4057183255-line-35)">^p</text><text class="terminal-4057183255-r5" x="1842.2" y="874" textLength="97.6" clip-path="url(#terminal-4057183255-line-35)">&#160;palette</text>
    </g>
    </g>
</svg>
